<?xml version="1.0" encoding="UTF-8"?><svg id="Capa_1" xmlns="http://www.w3.org/2000/svg" viewBox="0 0 540 540"><path d="M270.07,293.33c5.93-28.01,12.24-51.49,17.46-69.33,22.74-77.57,38.88-95.14,48.2-103.67,8.92-8.16,25.41-22.8,50.08-24.31,5.38-.33,24.59-.86,42.81,11.56,35.54,24.23,30.53,72.91,30.16,76.07-1.83,15.35-7.6,27.11-11.86,34.23l-24.58-16c3.15-4.08,7.91-11.48,9.42-21.6,2.82-18.89-6.65-40.73-23.96-48.68-14.3-6.57-29.27-1.55-33.83.26-32.71,12.99-44.94,56.69-56.98,99.74-5.7,20.36-11,46.79-13.42,58.72-2.21,10.87-4.24,21.85-6.47,34.86-6.07,35.34-11.04,74.82-13.32,118.44h-27.43c-2.29-43.62-7.26-83.1-13.32-118.44-2.23-13.01-4.26-23.99-6.47-34.86-2.43-11.94-7.73-38.36-13.42-58.72-12.04-43.05-24.27-86.75-56.98-99.74-4.56-1.81-19.53-6.84-33.83-.26-17.3,7.96-26.78,29.79-23.96,48.68,1.51,10.12,6.27,17.52,9.42,21.6l-24.58,16c-4.27-7.12-10.03-18.88-11.86-34.23-.38-3.16-5.39-51.84,30.16-76.07,18.22-12.42,37.42-11.89,42.81-11.56,24.67,1.5,41.16,16.15,50.08,24.31,9.33,8.53,25.46,26.1,48.2,103.67,5.23,17.83,11.53,41.32,17.46,69.33"/></svg>