<?xml version="1.0" encoding="UTF-8"?><svg id="Capa_1" xmlns="http://www.w3.org/2000/svg" viewBox="0 0 540 540"><defs><style>.cls-1{fill:none;opacity:0;stroke:#1d1e1c;stroke-miterlimit:10;stroke-width:13.77px;}</style></defs><path d="M99.37,149.37c-5.85-8.64-11.69-17.28-17.54-25.92,4.27-5.74,12.29-14.99,25.16-22.11,7.81-4.32,22.53-12.46,40.41-9.15,19.96,3.69,31.38,19.33,35.07,24.4,6.17,8.45,8.31,15.54,17.25,54.42,3.01,13.1,5.68,24.99,8,35.43,6.86-14.47,13.33-26.48,19.43-36,8-12.95,29.55-44.2,39.27-55.62,9.72-11.43,17.15-19.62,22.29-24.58,5.15-4.95,8.29-7.62,9.43-8l29.15,13.72v106.93c0,27.06,2.47,53.35,7.43,78.87,5.33-6.86,12.38-13.15,21.15-18.86,10.66-6.47,22.67-9.71,36-9.71,23.62,0,41.72,9.34,54.29,28,8.01,12.2,12.01,26.49,12.01,42.86,0,20.58-5.72,37.92-17.15,52.01-12.58,16-28.96,24-49.15,24-5.34,0-12-1.33-20-4-14.49-4.95-27.82-15.05-40.01-30.29-4.95,12.2-8.28,20.39-10,24.57-1.72,4.2-5.25,12.1-10.57,23.72-5.35,11.62-10,20-14,25.15-4,5.14-9.63,12-16.86,20.57-7.24,8.57-14.49,14.76-21.72,18.58-7.24,3.8-15.91,7.33-26,10.57-10.1,3.23-21.06,4.86-32.87,4.86h-17.72s0-35.43,0-35.43h17.72c13.33,0,25.15-2.48,35.43-7.43,10.29-4.95,19.24-12.96,26.86-24,7.62-11.05,13.8-21.43,18.57-31.15,4.76-9.71,10.57-23.52,17.43-41.43,1.14-2.29,2.95-6.76,5.43-13.43,2.47-6.66,4.48-11.72,6-15.15-11.81-31.62-17.72-72.58-17.72-122.87v-62.93c-38.48,47.25-71.38,129.67-73.28,183.77l-35.43.57c-2.84-50.36-9.04-103.69-14.4-132.22-8.49-45.2-15.13-61.29-27.45-64.81-16.04-4.58-34.67,14.13-41.94,22.11ZM414.74,299.46c-7.24-7.23-15.82-10.86-25.72-10.86-9.91,0-18.48,3.63-25.72,10.86-7.24,7.24-10.86,15.81-10.86,25.72,0,9.91,3.62,18.49,10.86,25.72,7.24,7.24,15.81,10.86,25.72,10.86,9.9,0,18.48-3.62,25.72-10.86,7.23-7.23,10.86-15.8,10.86-25.72,0-9.9-3.63-18.48-10.86-25.72"/><rect class="cls-1" x="0" y="0" width="540" height="540"/></svg>