<?xml version="1.0" encoding="UTF-8"?><svg id="Capa_1" xmlns="http://www.w3.org/2000/svg" viewBox="0 0 540 540"><path d="M390.24,101.95l-1.71,29.72c-11.43-.76-24.58-1.14-39.44-1.14-46.1,0-87.82,3.62-125.16,10.86-23.63,4.57-44.77,10.48-63.43,17.72,24.38,3.05,44.86,14,61.44,32.86,16.58,18.86,24.86,40.86,24.86,66.01,0,27.43-9.82,50.96-29.43,70.58-19.63,19.63-43.25,29.43-70.87,29.43-27.63,0-51.15-9.8-70.58-29.43-19.43-19.62-29.15-43.15-29.15-70.58,0-25.91,7.04-48.77,21.15-68.58,10.29-14.48,23.81-27.05,40.57-37.72,27.81-17.91,64.39-31.24,109.73-40.01,39.23-7.23,82.87-10.86,130.87-10.86,16.76,0,30.48.38,41.15,1.14ZM145.06,326.55c19.43,0,36.1-6.95,50.01-20.86,13.9-13.9,20.86-30.48,20.86-49.72,0-19.24-6.96-35.81-20.86-49.72-13.91-13.9-30.57-20.86-50.01-20.86-19.43,0-36,6.96-49.72,20.86-13.71,13.91-20.57,30.48-20.57,49.72,0,19.24,6.86,35.82,20.57,49.72,13.72,13.91,30.29,20.86,49.72,20.86ZM149.19,438.05l2.29-29.72c11.43.77,24.57,1.14,39.43,1.14,45.72,0,87.24-3.62,124.59-10.86,24-4.57,45.33-10.47,64-17.72-24.77-3.04-45.34-14-61.72-32.86-16.38-18.86-24.58-40.86-24.58-66.01,0-27.43,9.72-50.95,29.15-70.58,19.43-19.62,42.96-29.43,70.58-29.43,27.62,0,51.24,9.81,70.87,29.43,19.62,19.63,29.43,43.15,29.43,70.58,0,25.91-7.24,48.78-21.72,68.58-9.91,14.49-23.43,27.06-40.57,37.72-27.43,17.91-64.01,31.06-109.73,39.43-39.25,7.62-82.68,11.43-130.3,11.43-16.77,0-30.68-.38-41.72-1.14ZM393.22,351.76c19.43,0,36-6.95,49.72-20.86,13.72-13.9,20.58-30.57,20.58-50.01,0-19.43-6.86-36-20.58-49.72-13.72-13.72-30.29-20.58-49.72-20.58-19.43,0-36.1,6.86-50.01,20.58-13.91,13.71-20.86,30.29-20.86,49.72,0,19.43,6.95,36.1,20.86,50.01,13.9,13.91,30.58,20.86,50.01,20.86Z"/></svg>