<?xml version="1.0" encoding="UTF-8"?><svg id="Capa_1" xmlns="http://www.w3.org/2000/svg" viewBox="0 0 540 540"><defs><style>.cls-1{fill:none;opacity:0;stroke:#1d1e1c;stroke-miterlimit:10;stroke-width:13.77px;}</style></defs><path d="M200.85,90.44c10.66-9.14,23.24-16.57,37.72-22.29,14.47-5.72,28-8.57,40.57-8.57,14.09,0,25.9,3.62,35.43,10.86,15.23,11.81,23.04,34.67,23.43,68.58v2.29s0,.57,0,.57v217.17c1.92,50.3,20.68,86.31,44.99,90.96,10.29,1.97,19.11-2.16,22.85-3.97,27.28-13.21,40.73-53.65,36.97-101.51-10.24,11.58-20.48,23.16-30.73,34.75-6.73-6.56-13.45-13.13-20.18-19.69l66.3-76.01,62.29,80.01c-6.92,5.36-13.84,10.73-20.75,16.09-9.14-11.72-18.28-23.43-27.42-35.15.36,6.73,3.77,84.91-34.18,118.99-13.85,12.44-28.97,16.91-28.97,16.92s-22.69,6.72-48.21-2.47c-33.37-12.03-58.17-59.61-58.4-118.91v-217.74c0-10.66-.57-19.24-1.71-25.72-1.91-8.76-4.77-14.47-8.57-17.14-3.06-2.29-7.44-3.43-13.15-3.43-8.77,0-18.29,2.1-28.57,6.28-10.29,4.2-19.06,9.53-26.29,16-9.92,8.38-14.86,16.57-14.86,24.58v210.88s-35.43,0-35.43,0v-210.88c0-11.05-.57-19.81-1.71-26.29-1.53-8.76-4.2-14.47-8-17.14-3.06-2.29-7.63-3.43-13.72-3.43-8.77,0-18.2,2.1-28.29,6.28-10.1,4.2-18.96,9.53-26.57,16-9.53,8.38-14.29,16.57-14.29,24.58v210.88s-35.43,0-35.43,0V77.3s35.43,0,35.43,0v6.28c22.47-16,45.52-24,69.15-24,14.47,0,26.29,3.62,35.43,10.86,6.09,4.95,11.04,11.63,14.86,20Z"/><rect class="cls-1" x="0" y="0" width="540" height="540"/></svg>