<?xml version="1.0" encoding="UTF-8"?><svg id="Capa_1" xmlns="http://www.w3.org/2000/svg" viewBox="0 0 540 540"><path d="M177.67,432.59c-19.82,4.57-35.25,9.33-46.29,14.29l-12.58-29.72c16.38-7.23,37.34-13.33,62.87-18.29V141.7c-25.53-5.33-46.49-11.62-62.87-18.86,1.52-3.8,3.81-9.23,6.86-16.29,3.04-7.05,4.95-11.52,5.72-13.43l5.14,2.29c3.04,1.14,8.38,2.96,16.01,5.43,7.62,2.48,15.8,4.86,24.58,7.14,29.33,6.86,58.48,10.29,87.44,10.29,30.48,0,67.12-3.62,97.22-10.86,19.81-4.57,35.24-9.33,46.29-14.29.76,1.91,2.67,6.38,5.72,13.43,3.04,7.05,5.52,12.48,7.43,16.29-16.77,7.24-37.91,13.53-63.44,18.86v256.6c25.52,5.34,46.67,11.63,63.44,18.86-1.91,3.81-4.38,9.24-7.43,16.29-3.05,7.04-4.95,11.52-5.72,13.43l-5.14-2.29c-3.06-1.14-8.38-2.95-16.01-5.43-7.62-2.47-15.81-4.66-24.57-6.57-29.72-7.23-65.79-10.86-95.5-10.86-29.72,0-59.44,3.62-89.15,10.86ZM213.68,147.41v245.75c18.66-2.29,36.95-3.43,54.86-3.43,16.76,0,40.07.96,57.21,2.86v-245.75c-18.29,2.29-42.92,3.43-61.21,3.43-16.77,0-33.72-.95-50.86-2.86Z"/></svg>