<?xml version="1.0" encoding="UTF-8"?><svg id="Capa_1" xmlns="http://www.w3.org/2000/svg" viewBox="0 0 540 540"><path d="M412.22,191.42c-5.4,16.82-13.05,31.77-25.15,53.72-10.29,18.67-18.86,33.15-25.72,43.43-6.85,10.29-16.57,24.2-29.15,41.72-20.2,28.58-33.34,48.96-39.43,61.15-4.93,9.87-9.85,21.42-10.86,36.58-.65,9.73-1.17,19.9,5.44,29.39,1.18,1.7,10.12,14.05,25.84,14.49,1.32.04,13.34.2,22.06-8.19,10.78-10.38,12.42-29.93,2.52-47.26,8.4-5.25,16.8-10.5,25.21-15.75,3.64,6.81,9.64,20.27,9.59,37.96-.03,9.02-.08,26.82-12.81,41.94-15.23,18.09-37.74,19.42-43.83,19.78-6.57.39-33.82,1.03-51.25-19.02-10.3-11.85-12.11-25.7-13.62-36.76-.91-6.67-2.07-20.3,1.94-37.25,9.59-40.59,44.9-83.96,80.93-136.48,23.98-34.96,38.02-59.02,48-90.87,11.42-36.43,7.47-51.18,5.4-57.55-10.24-31.37-48.76-56.64-83.15-49.23-17.76,3.83-29.04,15.2-32.41,18.71-19.46,20.21-20.38,47.74-20.83,61.08-.17,5.15-.67,7.87,1.14,21.15,3.43,25.15,5.15,47.63,5.15,67.44,0,38.48-6.49,68.2-19.43,89.15-16.77,27.06-43.43,40.57-80.01,40.57-24,0-44.49-8.57-61.43-25.72-16.96-17.15-25.43-37.72-25.43-61.72,0-24,8.47-44.48,25.43-61.44,16.95-16.95,37.43-25.43,61.43-25.43,27.43,0,49.91,10.28,67.44,30.86-.77-14.86-2.29-31.24-4.57-49.15-1.53-8.76-2.29-17.33-2.29-25.72,0-7.77-1.17-47.06,26.29-78.87,5.21-6.04,22.31-25.34,50.42-32.16,47.85-11.61,103.28,18.82,120.9,62.48,13.46,33.35,2.31,68.09-3.74,86.96ZM157.77,339.31c15.62,0,28.95-5.52,40-16.57,11.04-11.04,16.58-24.38,16.58-40,0-15.62-5.53-28.95-16.58-40.01-11.06-11.04-24.38-16.57-40-16.57-15.63,0-28.96,5.53-40,16.57-11.06,11.06-16.58,24.39-16.58,40.01,0,15.63,5.52,28.96,16.58,40,11.04,11.06,24.38,16.57,40,16.57Z"/></svg>