<?xml version="1.0" encoding="UTF-8"?><svg id="Capa_1" xmlns="http://www.w3.org/2000/svg" viewBox="0 0 540 540"><path d="M511.18,260v37.72s-131.45,0-131.45,0v-18.86c0-30.48-10.67-56.38-32-77.72-21.34-21.33-47.25-32-77.73-32-30.48,0-56.39,10.67-77.73,32-21.34,21.34-32,47.25-32,77.72v18.86s-131.45,0-131.45,0v-37.72s95.44,0,95.44,0c4.57-36.58,20.66-67.15,48.29-91.73,27.62-24.57,60.1-36.86,97.44-36.86,37.34,0,69.81,12.29,97.44,36.86,27.62,24.58,43.72,55.15,48.29,91.73h95.44ZM28.82,371.44v37.15s482.35,0,482.35,0v-37.15s-482.35,0-482.35,0Z"/></svg>