<?xml version="1.0" encoding="UTF-8"?><svg id="Capa_1" xmlns="http://www.w3.org/2000/svg" viewBox="0 0 540 540"><path d="M342.99,286.58c1.15,17.53,4.09,35.24,8.86,53.15,4.76,17.91,9.9,32.86,15.43,44.86,5.52,12,11.71,23.63,18.57,34.86,6.86,11.24,11.62,18.58,14.29,22,2.66,3.43,4.76,5.91,6.29,7.43l-24.58,21.14c-14.86-17.14-28.96-39.81-42.29-68.01-17.52-38.48-27.24-76.95-29.15-115.44h-81.41c-2.28,38.1-12,76.21-29.15,114.3-12.95,28.57-26.86,51.62-41.72,69.15l-24.58-20.57,5.71-7.43c3.81-5.33,8.58-13.05,14.29-23.15,5.72-10.09,11.62-21.43,17.72-34,6.09-12.57,11.52-27.72,16.29-45.44,4.76-17.72,7.71-35.33,8.86-52.86h-88.01s0-32.57,0-32.57h88.58c-1.15-17.91-4.2-35.81-9.15-53.72-4.95-17.9-10.1-32.76-15.43-44.58-5.34-11.8-11.43-23.33-18.29-34.57-6.86-11.23-11.63-18.57-14.29-22-2.67-3.43-4.77-6.09-6.29-8l24.58-21.15c14.86,17.53,28.76,40.39,41.72,68.58,17.91,38.1,27.81,76.58,29.72,115.44h80.83c2.66-38.48,12.58-76.77,29.72-114.87,12.95-28.57,26.67-51.62,41.15-69.15,4.95,4.2,9.23,7.81,12.86,10.86,3.62,3.05,6.28,5.24,8,6.57,1.71,1.34,3.14,2.57,4.29,3.71l-5.72,7.43c-3.81,4.96-8.57,12.49-14.29,22.58-5.71,10.1-11.62,21.43-17.72,34-6.1,12.57-11.53,27.72-16.28,45.44-4.77,17.72-7.71,35.53-8.86,53.44h88.01s0,32.57,0,32.57h-88.58Z"/></svg>