<?xml version="1.0" encoding="UTF-8"?><svg id="Capa_1" xmlns="http://www.w3.org/2000/svg" viewBox="0 0 540 540"><path d="M355.51,127.18c17.9-11.81,32-23.81,42.29-36l22.86,18.86c-12.57,14.86-28.96,28.77-49.15,41.72-9.91,6.48-19.81,12-29.72,16.57,24.76,12.2,44.67,30.2,59.72,54.01,15.04,23.82,22.57,50.01,22.57,78.58,0,40.77-14.49,75.64-43.43,104.59-28.96,28.96-63.92,43.43-104.87,43.43-40.96,0-75.92-14.47-104.87-43.43-28.96-28.95-43.43-63.81-43.43-104.59,0-28.95,7.52-55.34,22.57-79.15,15.05-23.81,35.15-41.81,60.29-54.01-10.29-4.57-20.38-9.9-30.29-16-20.2-12.95-36.57-26.86-49.15-41.72l22.29-19.43,6.29,6.29c3.8,4.57,9.62,9.81,17.43,15.72,7.8,5.91,16.58,11.91,26.29,18,9.72,6.1,21.24,11.24,34.58,15.43,13.33,4.2,26.48,6.29,39.43,6.29,25.9,0,52.01-8.38,78.3-25.15ZM275.5,419.21c32.77,0,60.77-11.52,84.01-34.57,23.24-23.05,34.86-50.95,34.86-83.72,0-32.76-11.63-60.77-34.86-84.01-23.24-23.24-51.25-34.86-84.01-34.86-32.77,0-60.67,11.62-83.72,34.86-23.06,23.25-34.58,51.25-34.58,84.01,0,32.77,11.52,60.68,34.58,83.72,23.05,23.06,50.95,34.57,83.72,34.57Z"/></svg>