<?xml version="1.0" encoding="UTF-8"?><svg id="Capa_1" xmlns="http://www.w3.org/2000/svg" viewBox="0 0 540 540"><path d="M207.35,123.12c-1.53-4.19-3.43-6.86-5.72-8-3.81-1.9-7.81-2.86-12-2.86-4.95,0-12,1.34-21.15,4-11.06,3.81-20.2,8.57-27.43,14.29-11.43,9.14-17.14,17.72-17.14,25.72v201.74s-35.43,0-35.43,0V95.12s35.43,0,35.43,0v4c4.57-3.04,10.47-6.29,17.72-9.72,16.76-8,32.76-12,48-12,11.81,0,21.52,2.29,29.15,6.86,8.38,4.57,14.86,11.82,19.43,21.72,22.09-19.05,46.86-28.57,74.29-28.57,11.81,0,21.52,2.29,29.15,6.86,9.9,5.72,17.14,14.49,21.72,26.29,4.19,10.29,6.28,26.67,6.28,49.15,3.72-4.11,7.72-8.29,12.02-12.49,11.26-10.99,22.49-20.09,33.03-27.6,9.81,14.79,22.44,37.64,30.09,67.8,2.22,8.77,7,29.87,6.72,57.43-.09,9.09-1.01,46.31-19.32,90.46-11.7,28.2-26.74,50.2-40.19,66.34,3.88,6.39,7.78,13.18,11.64,20.37,3.47,6.46,6.65,12.75,9.57,18.86l-28,21.72c-2.97-4.86-5.93-9.96-8.86-15.29-5.38-9.8-10.06-19.3-14.13-28.37-6.77,4.74-13.75,9.95-20.86,15.66-4.29,3.45-8.38,6.88-12.28,10.28-2.29-3.05-6-7.53-11.14-13.43-5.15-5.91-8.86-10.39-11.14-13.43,16.38-13.34,28.76-23.81,37.15-31.43-6.1-29.72-9.14-61.34-9.14-94.87v-135.45c0-14.86-1.53-25.91-4.58-33.15-1.53-4.19-3.43-6.86-5.71-8-3.81-1.9-7.81-2.86-12.01-2.86-4.57,0-11.63,1.34-21.15,4-11.05,3.81-20.2,8.57-27.43,14.29-11.43,9.14-17.15,17.72-17.15,25.72v201.74s-35.43,0-35.43,0v-201.74M372.26,205.73c-4.73,34.05-6.79,75.82-.74,122.71,1.98,15.34,4.64,29.76,7.71,43.19,4.9-6.39,11.57-15.86,18.1-28.09,6.09-11.41,25.64-50.59,24.7-104.59-.53-30.42-7.39-55.87-14.53-74.57-6.79,6.58-13.95,14.17-21.13,22.84-5.27,6.36-9.95,12.57-14.1,18.51Z"/></svg>