<?xml version="1.0" encoding="UTF-8"?>
<svg id="Capa_1" data-name="Capa 1" xmlns="http://www.w3.org/2000/svg" viewBox="0 0 500 500">
  <defs>
    <style>
      .cls-1 {
        fill: gray;
        stroke-width: 0px;
      }
    </style>
  </defs>
  <path class="cls-1" d="M447.11,397.26c-.58,0-1.17-.05-1.75-.16L15.04,317.29c-3.32-.61-6.08-2.92-7.26-6.09-1.18-3.16-.62-6.71,1.49-9.35L246.88,3.62c2.03-2.55,5.2-3.88,8.49-3.57,3.25.33,6.12,2.28,7.6,5.2l192.71,378.03c1.66,3.27,1.33,7.19-.86,10.12-1.84,2.45-4.71,3.86-7.71,3.86ZM34.3,301.3l395.39,73.33L252.61,27.28,34.3,301.3Z"/>
  <path class="cls-1" d="M252.21,499.96c-2.65,0-5.2-1.1-7.02-3.05L3.35,238.29c-2.41-2.58-3.22-6.28-2.09-9.63,1.13-3.35,4-5.81,7.49-6.41l459.6-78.9c3.74-.66,7.54.99,9.65,4.18,2.1,3.19,2.13,7.31.06,10.52l-217.76,337.52c-1.61,2.49-4.27,4.1-7.22,4.36-.28.03-.57.04-.86.04ZM29.58,238.18l221.23,236.59,199.21-308.77L29.58,238.18Z"/>
  <path class="cls-1" d="M248.8,500h-.04c-13.42-.06-26.9-1.21-40.08-3.41-5.24-.88-8.77-5.83-7.9-11.07.88-5.23,5.86-8.74,11.07-7.89,12.16,2.03,24.61,3.09,36.99,3.15,5.31.03,9.6,4.34,9.57,9.66-.02,5.3-4.33,9.57-9.62,9.57ZM324.96,488.02c-4.05,0-7.81-2.57-9.14-6.63-1.65-5.05,1.1-10.48,6.15-12.13,11.74-3.84,23.27-8.66,34.25-14.34,4.71-2.45,10.52-.59,12.96,4.12,2.44,4.72.59,10.52-4.13,12.96-11.9,6.15-24.38,11.38-37.11,15.54-.99.33-2,.48-2.99.48ZM137.27,471.91c-1.52,0-3.07-.36-4.51-1.13-8.86-4.73-17.57-10.06-25.88-15.86-2.71-1.89-5.37-3.83-7.98-5.81-4.23-3.21-5.06-9.24-1.85-13.47,3.21-4.23,9.24-5.06,13.47-1.85,2.41,1.83,4.87,3.62,7.37,5.37,7.67,5.36,15.72,10.29,23.91,14.65,4.69,2.5,6.46,8.33,3.96,13.01-1.73,3.25-5.06,5.1-8.49,5.1ZM422.52,427.1c-2.41,0-4.82-.9-6.69-2.71-3.82-3.69-3.91-9.78-.22-13.6,8.56-8.84,16.51-18.49,23.62-28.66l.38-.54c3.02-4.36,9.01-5.45,13.38-2.42,4.36,3.02,5.45,9.01,2.42,13.38l-.42.61c-7.69,11.01-16.29,21.44-25.57,31.02-1.89,1.95-4.4,2.92-6.91,2.92ZM51.53,395.25c-3.07,0-6.09-1.46-7.95-4.19-7.55-11.05-14.25-22.81-19.93-34.95-2.25-4.81-.17-10.54,4.64-12.78,4.8-2.27,10.53-.18,12.78,4.63,5.24,11.21,11.43,22.06,18.39,32.26,3,4.38,1.87,10.37-2.52,13.36-1.66,1.13-3.55,1.68-5.41,1.68ZM480.82,327.16c-.89,0-1.8-.13-2.7-.39-5.1-1.49-8.02-6.83-6.53-11.93,3.47-11.86,5.99-24.09,7.51-36.35.65-5.27,5.51-9.05,10.72-8.36,5.27.65,9.02,5.45,8.37,10.72-1.64,13.3-4.38,26.55-8.14,39.39-1.23,4.19-5.06,6.92-9.22,6.92ZM11.28,287.49c-4.81,0-8.96-3.6-9.54-8.49C.61,269.32.03,259.49.03,249.76c0-3.65.08-7.31.24-10.96.23-5.3,4.71-9.41,10.03-9.19,5.31.23,9.42,4.73,9.19,10.03-.15,3.37-.22,6.74-.22,10.12,0,8.98.53,18.07,1.58,27,.62,5.28-3.16,10.05-8.43,10.67-.38.04-.76.06-1.13.06ZM485.72,212.24c-4.49,0-8.5-3.16-9.42-7.72-2.44-12.12-5.87-24.13-10.2-35.7-1.86-4.98.66-10.52,5.63-12.38,4.99-1.87,10.52.66,12.38,5.63,4.69,12.53,8.41,25.53,11.05,38.67,1.05,5.2-2.33,10.27-7.53,11.32-.64.13-1.28.19-1.9.19ZM25.59,173.37c-1.15,0-2.32-.21-3.45-.64-4.95-1.9-7.42-7.47-5.52-12.43,4.8-12.48,10.67-24.67,17.44-36.24,2.68-4.59,8.57-6.12,13.16-3.45,4.58,2.68,6.13,8.57,3.45,13.15-6.24,10.68-11.66,21.94-16.09,33.45-1.47,3.82-5.11,6.16-8.98,6.16ZM436.81,108.14c-2.8,0-5.57-1.21-7.47-3.56-7.77-9.57-16.4-18.61-25.66-26.84-3.97-3.53-4.32-9.61-.79-13.57,3.53-3.97,9.62-4.32,13.58-.79,10.03,8.92,19.38,18.71,27.8,29.08,3.35,4.13,2.72,10.18-1.41,13.53-1.78,1.45-3.93,2.15-6.05,2.15ZM91.34,78.98c-2.67,0-5.32-1.1-7.22-3.26-3.51-3.99-3.12-10.07.87-13.57,10.04-8.84,20.89-16.93,32.26-24.05,4.51-2.8,10.44-1.45,13.25,3.04,2.82,4.5,1.46,10.44-3.04,13.26-10.48,6.57-20.5,14.03-29.76,22.19-1.82,1.61-4.09,2.4-6.35,2.4ZM345.06,38.72c-1.27,0-2.56-.25-3.8-.78-11.36-4.9-23.19-8.9-35.16-11.89-5.15-1.29-8.28-6.51-6.99-11.66,1.29-5.15,6.52-8.27,11.66-6.99,12.97,3.25,25.79,7.58,38.1,12.88,4.88,2.1,7.13,7.76,5.02,12.64-1.57,3.64-5.11,5.81-8.83,5.81ZM193.41,25.97c-4.34,0-8.27-2.95-9.34-7.36-1.25-5.16,1.92-10.35,7.08-11.61,13.01-3.15,26.38-5.27,39.72-6.3,5.34-.6,9.92,3.55,10.33,8.85.41,5.29-3.55,9.92-8.85,10.32-12.32.96-24.66,2.91-36.67,5.82-.76.18-1.52.27-2.27.27Z"/>
  <path class="cls-1" d="M249.69,499.89c-49.43,0-99.32-14.58-142.82-44.97-4.35-3.04-5.42-9.03-2.38-13.39,3.04-4.34,9.04-5.41,13.39-2.37,104.32,72.87,248.47,47.3,321.34-57.02,72.87-104.31,47.3-248.46-57.02-321.34-4.35-3.04-5.42-9.03-2.38-13.39,3.04-4.34,9.04-5.41,13.39-2.37,113.01,78.95,140.72,235.12,61.77,348.12-48.56,69.5-126.33,106.74-205.3,106.74Z"/>
</svg>