<?xml version="1.0" encoding="UTF-8"?>
<svg id="Capa_1" data-name="Capa 1" xmlns="http://www.w3.org/2000/svg" viewBox="0 0 500 500">
  <defs>
    <style>
      .cls-1 {
        fill: #ff0e2c;
        stroke-width: 0px;
      }
    </style>
  </defs>
  <path class="cls-1" d="M443.54,92.26h-85.9v-37.7c0-30.09-24.48-54.56-54.56-54.56h-106.15c-30.09,0-54.56,24.48-54.56,54.56v37.7H56.46c-10.96,0-19.84,8.88-19.84,19.84s8.88,19.84,19.84,19.84h22l18.76,334c.36,18.84,15.79,34.05,34.72,34.05h236.11c18.92,0,34.36-15.22,34.72-34.05l18.76-334h22c10.96,0,19.84-8.88,19.84-19.84s-8.88-19.84-19.84-19.84ZM182.04,54.56c0-8.22,6.66-14.88,14.88-14.88h106.15c8.22,0,14.88,6.66,14.88,14.88v36.71h-135.91v-36.71ZM363.34,460.32h-226.68l-18.45-328.37h263.58l-18.45,328.37Z"/>
  <path class="cls-1" d="M201.88,381.69c10.96,0,19.84-8.88,19.84-19.84v-162.44c0-10.96-8.88-19.84-19.84-19.84s-19.84,8.88-19.84,19.84v162.44c0,10.96,8.88,19.84,19.84,19.84Z"/>
  <path class="cls-1" d="M298.11,381.69c10.96,0,19.84-8.88,19.84-19.84v-162.44c0-10.96-8.88-19.84-19.84-19.84s-19.84,8.88-19.84,19.84v162.44c0,10.96,8.88,19.84,19.84,19.84Z"/>
</svg>