<?xml version="1.0" encoding="UTF-8"?>
<svg id="Capa_1" data-name="Capa 1" xmlns="http://www.w3.org/2000/svg" viewBox="0 0 500 500">
  <defs>
    <style>
      .cls-1 {
        fill: #989898;
        stroke-width: 0px;
      }
    </style>
  </defs>
  <path class="cls-1" d="M376.5,432.81c0,19.03-15.48,34.51-34.51,34.51H64.23c-19.03,0-34.51-15.48-34.51-34.51V155.07c0-19.03,15.48-34.51,34.51-34.51h138.87v-29.58H64.23C28.89,90.97.14,119.73.14,155.07v277.74c0,35.34,28.76,64.1,64.1,64.1h277.75c35.34,0,64.1-28.76,64.1-64.1v-138.87h-29.58v138.87Z"/>
  <path class="cls-1" d="M482.84,67.1l-45.95-45.95c-23.07-23.07-60.61-23.07-83.67,0l-217.59,217.59-20.92,20.92.21.21c-2.83,3.31-5.11,7.12-6.27,11.46l-16.07,59.96-16.07,59.96c-2.74,10.21.18,21.1,7.66,28.58,7.47,7.47,18.37,10.39,28.58,7.66l59.96-16.07,59.96-16.07c4.35-1.16,8.16-3.44,11.46-6.27l.21.21,20.92-20.92,217.59-217.59c23.07-23.07,23.07-60.61,0-83.67ZM415.97,42.07l45.95,45.95c11.55,11.55,11.55,30.28,0,41.84l-23.09,23.09-87.79-87.79,23.09-23.09c11.55-11.55,30.28-11.55,41.84,0ZM165.03,382.84l-1.25.34-42.98-42.98.34-1.25,15.39-57.45,85.95,85.95-57.45,15.39ZM202.02,301.97l-43.89-43.89,172-172,87.79,87.79-172,172-43.89-43.89Z"/>
</svg>