<?xml version="1.0" encoding="UTF-8"?>
<svg id="Capa_1" data-name="Capa 1" xmlns="http://www.w3.org/2000/svg" viewBox="0 0 500 500">
  <defs>
    <style>
      .cls-1 {
        fill: gray;
        opacity: .65;
        stroke-width: 0px;
      }
    </style>
  </defs>
  <path class="cls-1" d="M408.69,0H91.31C40.96,0,0,40.96,0,91.3v317.39C0,459.04,40.96,500,91.31,500h317.39c50.35,0,91.31-40.96,91.31-91.31V91.3C500,40.96,459.04,0,408.69,0ZM102.74,50.52c14.35,0,25.98,11.63,25.98,25.98s-11.63,25.98-25.98,25.98-25.98-11.63-25.98-25.98,11.63-25.98,25.98-25.98ZM423.24,76.51c0,14.35-11.63,25.98-25.98,25.98s-25.98-11.63-25.98-25.98,11.63-25.98,25.98-25.98,25.98,11.63,25.98,25.98ZM480.77,408.69c0,39.74-32.33,72.08-72.07,72.08H91.31c-39.74,0-72.07-32.33-72.07-72.08V139.04h461.54v269.65Z"/>
</svg>