<?xml version="1.0" encoding="UTF-8"?>
<svg id="Capa_1" data-name="Capa 1" xmlns="http://www.w3.org/2000/svg" viewBox="0 0 1080 685">
  <defs>
    <style>
      .cls-1 {
        fill: #b2b2b2;
        stroke-width: 0px;
      }
    </style>
  </defs>
  <path class="cls-1" d="M1078.63,582.28h-514.65c-38.11,0-69.11-31-69.11-69.11s31-69.11,69.11-69.11h11.96c.62,0,1.17-.42,1.33-1.03,9.83-37.96,44.11-64.47,83.37-64.47,47.49,0,86.12,38.63,86.12,86.12,0,1.77-.07,3.63-.22,5.86-.04.6.31,1.16.87,1.37.56.22,1.2.04,1.57-.43,7.22-9.13,18.03-14.37,29.64-14.37,20.83,0,37.78,16.95,37.78,37.78s-20.54,36.87-45.79,36.87c-.76,0-1.37.61-1.37,1.37s.61,1.37,1.37,1.37h101.75c45.48,0,82.49-37,82.49-82.49s-37-82.49-82.49-82.49h-41.97c1.39-7.08,2.1-14.33,2.1-21.57,0-61.28-49.85-111.13-111.13-111.13-22.54,0-44.11,6.66-62.6,19.31.17-1.91.26-3.8.26-5.65,0-35.54-28.91-64.45-64.45-64.45-15.82,0-30.92,5.75-42.72,16.22-9.81-19.22-24.59-35.47-42.85-47.08-19.29-12.26-41.62-18.75-64.58-18.75-43.24,0-83.26,23.27-104.71,60.81-8.97-2.66-18.29-4-27.72-4-53.73,0-97.44,43.71-97.44,97.44,0,11.32,1.93,22.41,5.73,32.98-16.92,10.53-31.09,25.2-41.02,42.48-10.42,18.15-15.93,38.88-15.93,59.93s5.48,41.66,15.85,59.78c.38.66,1.21.89,1.87.51.38-.22.62-.6.67-1.01.3-.08.58-.27.76-.55,12.92-19.12,34.39-30.54,57.43-30.54,26.75,0,51.37,15.67,62.74,39.91.28.59.93.9,1.56.75,4.47-1.07,9.05-1.62,13.6-1.62,32.01,0,58.05,26.04,58.05,58.05,0,.16,0,.32-.01.47v.42c-.02.74.56,1.35,1.29,1.39,33.87,1.58,60.4,29.41,60.4,63.34v1.57c0,34.97-28.45,63.42-63.42,63.42H1.37c-.76,0-1.37.61-1.37,1.37s.61,1.37,1.37,1.37h372.75c36.48,0,66.16-29.68,66.16-66.16v-1.57c0-34.96-26.99-63.7-61.69-66-.21-33.35-27.4-60.41-60.79-60.41-4.4,0-8.82.49-13.16,1.44-12.01-24.63-37.3-40.49-64.74-40.49-23.74,0-45.86,11.66-59.33,31.2-9.49-17.28-14.52-36.82-14.52-56.66s5.38-40.83,15.57-58.57c9.88-17.21,24.07-31.76,41.02-42.09.56-.34.8-1.03.57-1.65-3.94-10.58-5.94-21.71-5.94-33.08,0-52.22,42.48-94.7,94.7-94.7,9.53,0,18.94,1.41,27.97,4.2.62.19,1.28-.08,1.6-.64,20.83-37.24,60.25-60.37,102.86-60.37,22.44,0,44.26,6.33,63.11,18.32,18.35,11.67,33.1,28.13,42.67,47.61.19.39.56.67.99.74.43.08.87-.05,1.18-.35,11.48-10.77,26.47-16.71,42.2-16.71,34.03,0,61.71,27.68,61.71,61.71,0,2.7-.19,5.51-.58,8.34-.07.54.18,1.08.65,1.36.47.28,1.06.25,1.51-.07,18.56-13.44,40.52-20.55,63.5-20.55,59.77,0,108.39,48.62,108.39,108.39,0,7.61-.8,15.23-2.38,22.66-.09.4.02.83.27,1.15.26.32.65.51,1.07.51h43.65c43.97,0,79.75,35.77,79.75,79.75s-35.77,79.75-79.75,79.75h-84.05c18.03-5.79,30.83-20.13,30.83-36.87,0-22.34-18.18-40.52-40.52-40.52-11.11,0-21.53,4.47-29.15,12.39.02-.71.03-1.4.03-2.08,0-49-39.86-88.86-88.86-88.86-40.15,0-75.26,26.88-85.75,65.5h-10.91c-39.62,0-71.85,32.23-71.85,71.85s32.23,71.85,71.85,71.85h514.65c.76,0,1.37-.61,1.37-1.37s-.61-1.37-1.37-1.37Z"/>
  <path class="cls-1" d="M1074.95,261.19h-242.33c-21.5,0-38.98-17.49-38.98-38.98s17.49-38.98,38.98-38.98c4.29,0,8.53.7,12.6,2.09.68.23,1.42-.1,1.7-.76,7.29-17.12,24.03-28.18,42.63-28.18,23.07,0,42.8,17.22,45.89,40.06.06.47.37.88.8,1.07.44.19.94.15,1.33-.12,3.91-2.68,8.48-4.1,13.23-4.1,12.9,0,23.4,10.5,23.4,23.4s-10.5,23.4-23.4,23.4c-.76,0-1.37.61-1.37,1.37s.61,1.37,1.37,1.37c11.55,0,21.36-7.53,24.81-17.93,6.16,5.98,14.48,9.38,23.1,9.38,18.29,0,33.17-14.88,33.17-33.17s-14.88-33.17-33.17-33.17c-4.11,0-8.1.74-11.89,2.2.24-2.35.36-4.68.36-6.94,0-37.62-30.61-68.23-68.23-68.23-26.13,0-49.97,15-61.36,38.4-6.2-7.6-15.52-12.08-25.38-12.08-8.39,0-16.48,3.25-22.53,8.99-5.67-17.92-22.33-30.23-41.33-30.23s-35.95,12.58-41.47,30.71c-19.84,1.12-35.23,17.33-35.23,37.33,0,15.66,9.67,29.1,23.35,34.66h-77.5c-.76,0-1.37.61-1.37,1.37s.61,1.37,1.37,1.37h91.55c.76,0,1.37-.61,1.37-1.37s-.61-1.37-1.37-1.37c-19.11,0-34.66-15.55-34.66-34.66s14.75-34.05,33.58-34.64c.6-.02,1.12-.42,1.28-1,4.88-17.47,20.96-29.66,39.11-29.66s34.72,12.53,39.33,30.47c.13.49.51.87,1,.99.49.12,1-.04,1.34-.41,5.67-6.24,13.76-9.81,22.19-9.81,9.75,0,18.92,4.77,24.54,12.76.28.4.77.62,1.25.58.49-.05.92-.36,1.12-.81,10.52-23.6,34.01-38.85,59.82-38.85,36.11,0,65.49,29.38,65.49,65.49,0,2.9-.21,5.91-.62,8.95-.07.5.14.99.55,1.29.41.3.94.35,1.4.13,4.07-1.92,8.43-2.89,12.95-2.89,16.78,0,30.43,13.65,30.43,30.43s-13.65,30.43-30.43,30.43c-8.43,0-16.54-3.54-22.28-9.72.33-1.66.51-3.37.51-5.13,0-14.41-11.73-26.14-26.14-26.14-4.59,0-9.04,1.19-12.98,3.45-4.15-23.15-24.54-40.35-48.27-40.35-19.28,0-36.67,11.22-44.64,28.69-3.98-1.23-8.11-1.85-12.29-1.85-23.01,0-41.72,18.72-41.72,41.72s18.72,41.72,41.72,41.72h242.33c.76,0,1.37-.61,1.37-1.37s-.61-1.37-1.37-1.37Z"/>
  <path class="cls-1" d="M1.37,166.65h242.33c21.5,0,38.98-17.49,38.98-38.98,0-21.49-17.49-38.98-38.98-38.98-4.29,0-8.53.7-12.6,2.09-.68.23-1.42-.1-1.7-.76-7.29-17.12-24.03-28.18-42.63-28.18-23.07,0-42.8,17.22-45.89,40.06-.06.47-.37.88-.8,1.07-.44.19-.94.15-1.33-.12-3.91-2.68-8.48-4.1-13.23-4.1-12.9,0-23.4,10.5-23.4,23.4,0,12.9,10.5,23.4,23.4,23.4.76,0,1.37.61,1.37,1.37s-.61,1.37-1.37,1.37c-11.55,0-21.36-7.53-24.81-17.93-6.16,5.98-14.48,9.38-23.1,9.38-18.29,0-33.17-14.88-33.17-33.17s14.88-33.17,33.17-33.17c4.11,0,8.1.74,11.89,2.2-.24-2.35-.36-4.68-.36-6.94,0-37.62,30.61-68.23,68.23-68.23,26.13,0,49.97,15,61.36,38.4,6.2-7.6,15.52-12.08,25.38-12.08,8.39,0,16.48,3.25,22.53,8.99,5.67-17.92,22.33-30.23,41.33-30.23,19.04,0,35.95,12.58,41.47,30.71,19.84,1.12,35.23,17.33,35.23,37.33,0,15.66-9.67,29.1-23.35,34.66h77.5c.76,0,1.37.61,1.37,1.37,0,.76-.61,1.37-1.37,1.37h-91.55c-.76,0-1.37-.61-1.37-1.37s.61-1.37,1.37-1.37c19.11,0,34.66-15.55,34.66-34.66,0-18.84-14.75-34.05-33.58-34.64-.6-.02-1.12-.42-1.28-1-4.88-17.47-20.96-29.66-39.11-29.66s-34.72,12.53-39.33,30.47c-.13.49-.51.87-1,.99-.49.12-1-.04-1.34-.41-5.67-6.24-13.76-9.81-22.19-9.81-9.75,0-18.92,4.77-24.54,12.76-.28.4-.77.62-1.25.58-.49-.05-.92-.36-1.12-.81-10.52-23.6-34.01-38.85-59.82-38.85-36.11,0-65.49,29.38-65.49,65.49,0,2.9.21,5.91.62,8.95.07.5-.14.99-.55,1.29-.41.3-.94.35-1.4.13-4.07-1.92-8.43-2.89-12.95-2.89-16.78,0-30.43,13.65-30.43,30.43,0,16.78,13.65,30.43,30.43,30.43,8.43,0,16.54-3.54,22.28-9.72-.33-1.66-.51-3.37-.51-5.13,0-14.41,11.73-26.14,26.14-26.14,4.59,0,9.04,1.19,12.98,3.45,4.15-23.15,24.54-40.35,48.27-40.35,19.28,0,36.67,11.22,44.64,28.69,3.98-1.23,8.11-1.85,12.29-1.85,23.01,0,41.72,18.72,41.72,41.72,0,23.01-18.72,41.72-41.72,41.72H1.37c-.76,0-1.37-.61-1.37-1.37,0-.76.61-1.37,1.37-1.37Z"/>
</svg>