<?xml version="1.0" encoding="UTF-8"?>
<svg id="Capa_1" data-name="Capa 1" xmlns="http://www.w3.org/2000/svg" viewBox="0 0 500 500">
  <defs>
    <style>
      .cls-1 {
        fill: #00b936;
        stroke-width: 0px;
      }
    </style>
  </defs>
  <path class="cls-1" d="M500,250c0,138.07-111.93,250-250,250S0,388.07,0,250,111.93,0,250,0c65.52,0,124.97,25.41,169.55,66.66l-167.76,231.93-76.04-128.98c-10.82-18.36-34.51-24.46-52.84-13.64-18.36,10.82-24.46,34.48-13.64,52.85l105.99,179.77c6.6,11.22,18.44,18.34,31.43,18.95.61.02,1.21.04,1.81.04,12.35,0,24-5.91,31.27-15.98l189.4-261.85c19.62,35.69,30.83,76.65,30.83,120.25Z"/>
</svg>