<?xml version="1.0" encoding="UTF-8"?>
<svg id="Capa_1" data-name="Capa 1" xmlns="http://www.w3.org/2000/svg" viewBox="0 0 500 430">
  <defs>
    <style>
      .cls-1 {
        fill: #4d4d4d;
      }

      .cls-2 {
        fill: #fff;
      }
    </style>
  </defs>
  <path class="cls-1" d="M484.93,182.79c-48.02-79.64-135.35-133.02-234.93-133.02S63.09,103.15,15.07,182.79c-4.2,6.96-8.09,14.13-11.67,21.48-4.53,9.32-4.53,20.15,0,29.47,3.58,7.35,7.47,14.52,11.67,21.48,48.02,79.64,135.35,133.02,234.93,133.02s186.91-53.38,234.93-133.02c4.2-6.96,8.09-14.13,11.67-21.48,4.53-9.32,4.53-20.15,0-29.47-3.58-7.35-7.47-14.52-11.67-21.48h0ZM250,358.86c-91.18,0-170.7-49.87-212.81-123.81-5.65-9.92-5.65-22.19,0-32.11,42.12-73.94,121.63-123.81,212.81-123.81s170.7,49.87,212.81,123.81c5.65,9.92,5.65,22.19,0,32.11-42.12,73.94-121.63,123.81-212.81,123.81Z"/>
  <path class="cls-1" d="M250,144.07c40.33,0,73.03,32.7,73.03,73.03s-32.7,73.03-73.03,73.03-73.03-32.7-73.03-73.03,32.7-73.03,73.03-73.03M250,114.7c-56.46,0-102.4,45.94-102.4,102.4s45.94,102.4,102.4,102.4,102.4-45.94,102.4-102.4-45.94-102.4-102.4-102.4h0Z"/>
  <g>
    <path class="cls-1" d="M67.77,422.5c-6.75,0-13.1-2.63-17.87-7.4-9.86-9.86-9.86-25.89,0-35.75L414.34,14.9c4.77-4.77,11.12-7.4,17.88-7.4s13.1,2.63,17.87,7.4c9.86,9.86,9.86,25.89,0,35.75L85.65,415.1c-4.77,4.77-11.12,7.4-17.87,7.4Z"/>
    <path class="cls-2" d="M432.22,15c4.55,0,9.1,1.74,12.57,5.21,6.94,6.94,6.94,18.2,0,25.14L80.34,409.8c-3.47,3.47-8.02,5.21-12.57,5.21s-9.1-1.74-12.57-5.21c-6.94-6.94-6.94-18.2,0-25.14L419.65,20.21c3.47-3.47,8.02-5.21,12.57-5.21M432.22,0c-8.76,0-16.99,3.41-23.18,9.6L44.6,374.05c-6.19,6.19-9.6,14.42-9.6,23.18s3.41,16.99,9.6,23.18,14.42,9.6,23.18,9.6,16.99-3.41,23.18-9.6L455.4,55.96c12.78-12.78,12.78-33.57,0-46.35-6.19-6.19-14.42-9.6-23.18-9.6h0Z"/>
  </g>
</svg>