<?xml version="1.0" encoding="UTF-8"?>
<svg id="Capa_1" data-name="Capa 1" xmlns="http://www.w3.org/2000/svg" viewBox="0 0 455 500">
  <defs>
    <style>
      .cls-1 {
        fill: #b2b2b2;
        stroke-width: 0px;
      }
    </style>
  </defs>
  <path class="cls-1" d="M453.59,336.52l-45.17-63.35c-.24-.33-.6-.56-1-.63-.4-.07-.82.03-1.15.27-10.12,7.23-20.6,13.8-31.38,19.71l-52.31-90.6h27.27v1.66c0,8.52,6.93,15.46,15.46,15.46h12.23c8.52,0,15.46-6.93,15.46-15.46v-51.88c0-8.52-6.93-15.46-15.46-15.46h-12.23c-8.52,0-15.46,6.93-15.46,15.46v1.66h-55.3l-29.2-50.58c5.59-7.7,8.9-17.17,8.9-27.39,0-20.46-13.22-37.88-31.56-44.2V15.19c0-8.37-6.81-15.19-15.19-15.19s-15.19,6.81-15.19,15.19v16.02c-18.34,6.32-31.56,23.74-31.56,44.2,0,10.12,3.24,19.48,8.72,27.14l-38.27,66.29-9.54-5.51c-3.51-2.03-7.61-2.57-11.52-1.52-3.92,1.05-7.19,3.56-9.22,7.08s-2.57,7.61-1.52,11.52c1.05,3.92,3.56,7.19,7.08,9.22l9.54,5.51-12.51,21.67-46.3-26.73c-7.25-4.19-16.56-1.69-20.74,5.56-4.19,7.25-1.69,16.56,5.56,20.75l46.3,26.73-28.97,50.17c-10.66-5.77-21.03-12.19-31.06-19.25-.33-.24-.75-.33-1.15-.26-.4.07-.76.3-1,.63L1.4,338.05c-.49.7-.32,1.66.37,2.15,35.97,25.33,75.43,44.14,116.99,56.03.2.26.47.46.81.55.14.04.27.05.4.05.19,0,.36-.04.53-.1,30.65,8.61,62.44,13.45,94.82,14.35v22.4h-25.19c-5.8,0-10.51,4.72-10.51,10.51v5.61h-15.27c-.77-7.03-6.74-12.51-13.97-12.51-7.75,0-14.06,6.31-14.06,14.06s6.31,14.06,14.06,14.06c7.23,0,13.2-5.49,13.97-12.51h15.27v6.22c0,2.9,1.18,5.52,3.08,7.43H2.67v3.09h449.67v-3.09h-182.29c1.9-1.9,3.08-4.53,3.08-7.43v-14.91c0-5.8-4.72-10.51-10.51-10.51h-25.1v-22.4c64.97-1.8,127.49-19.42,183.26-51.52.06,0,.12.02.18.02.25,0,.5-.06.73-.19.32-.18.55-.45.68-.77,10.54-6.13,20.84-12.77,30.86-19.93.69-.49.85-1.46.36-2.15ZM352.93,201.93v-50.21c0-6.82,5.55-12.37,12.37-12.37h12.23c6.82,0,12.37,5.55,12.37,12.37v51.88c0,6.82-5.55,12.37-12.37,12.37h-12.23c-6.82,0-12.37-5.55-12.37-12.37v-1.66ZM150.4,462.1c-6.05,0-10.97-4.92-10.97-10.97s4.92-10.97,10.97-10.97,10.97,4.92,10.97,10.97-4.92,10.97-10.97,10.97ZM372.16,293.99c-7.15,3.83-14.43,7.36-21.83,10.6l-59.27-102.66h27.95l53.15,92.06ZM347.48,305.82c-33.06,14.07-68.39,22.23-104.8,24.1v-127.99h44.82l59.98,103.89ZM296.32,156.46h53.52v42.38h-107.16v-42.38h53.64ZM242.69,153.38v-29.07l16.78,29.07h-16.78ZM290.98,153.38h-27.95l-19.64-34.02c7.81-2.83,14.65-7.69,19.9-13.94l27.69,47.96ZM215.4,15.19c0-6.67,5.43-12.1,12.1-12.1s12.1,5.43,12.1,12.1v15.07c-3.86-1.04-7.92-1.6-12.1-1.6s-8.24.56-12.1,1.6v-15.07ZM183.84,75.4c0-18.73,11.86-34.75,28.47-40.93,1.01-.38,2.04-.71,3.09-1.01,3.85-1.11,7.9-1.72,12.1-1.72s8.26.61,12.1,1.72c1.04.3,2.08.63,3.09,1.01,16.61,6.18,28.47,22.19,28.47,40.93,0,9.06-2.77,17.48-7.51,24.46-.63.93-1.3,1.83-2,2.7-4.91,6.16-11.44,10.97-18.95,13.77-.29.11-.58.2-.87.3-.73.25-1.47.49-2.22.71-.27.08-.53.16-.8.23-3.61.97-7.39,1.49-11.3,1.49s-7.89-.55-11.58-1.57c-.18-.05-.35-.1-.52-.15-.84-.24-1.67-.51-2.49-.8-.2-.07-.4-.14-.59-.21-7.61-2.83-14.21-7.73-19.14-14.01-.69-.88-1.36-1.79-1.99-2.73-4.63-6.93-7.34-15.25-7.34-24.19ZM239.6,120.54v209.52c-4.38.18-8.77.28-13.18.28-3.68,0-7.36-.07-11.02-.2V120.54c3.86,1.04,7.92,1.6,12.1,1.6s8.24-.56,12.1-1.6ZM171.14,249.43c-1.05-3.92-3.56-7.19-7.08-9.22l-14.25-8.22,12.51-21.67,9.54,5.51c2.34,1.35,4.94,2.04,7.57,2.04,1.32,0,2.65-.17,3.96-.52,3.92-1.05,7.19-3.56,9.22-7.08s2.57-7.61,1.52-11.52-3.56-7.19-7.08-9.22l-9.54-5.51,34.8-60.28v206.28c-36.6-1.64-72.17-9.63-105.47-23.59l27.79-48.14,14.24,8.22c2.34,1.35,4.94,2.04,7.57,2.04,1.32,0,2.65-.17,3.96-.52,3.92-1.05,7.19-3.56,9.22-7.08s2.57-7.61,1.52-11.52ZM191.51,105.19c5.21,6.28,12.03,11.18,19.82,14.07l-36.5,63.21-20.96-12.1,37.63-65.18ZM128.02,186.95c-2.8-1.62-4.8-4.23-5.64-7.35-.84-3.12-.41-6.38,1.21-9.18s4.23-4.8,7.35-5.64c1.04-.28,2.1-.42,3.15-.42,2.1,0,4.17.55,6.03,1.63l9.54,5.51,2.67,1.54,20.96,12.1,2.67,1.54,9.54,5.51c2.8,1.62,4.8,4.23,5.64,7.35.84,3.12.41,6.38-1.21,9.18s-4.23,4.8-7.35,5.64c-3.12.84-6.38.41-9.18-1.21l-9.54-5.51-2.67-1.54-20.96-12.1-2.67-1.54-9.54-5.51ZM138.69,196.67l20.96,12.1-12.51,21.67-20.96-12.1,12.51-21.67ZM63.57,213.7c-5.78-3.34-7.77-10.75-4.43-16.53,3.34-5.78,10.75-7.77,16.53-4.43l46.3,26.73,2.67,1.54,20.96,12.1,2.67,1.54,14.25,8.22c2.8,1.62,4.8,4.23,5.64,7.35.84,3.12.41,6.38-1.21,9.18s-4.23,4.8-7.35,5.64c-3.12.84-6.38.41-9.18-1.21l-14.24-8.22-2.67-1.54-20.96-12.1-2.67-1.54-46.3-26.73ZM111,244.65l20.96,12.1-27.98,48.46c-7.42-3.2-14.72-6.7-21.89-10.49l28.91-50.08ZM262.61,436.55c4.09,0,7.43,3.33,7.43,7.43v14.91c0,4.09-3.33,7.43-7.43,7.43h-72.46c-4.09,0-7.43-3.33-7.43-7.43v-14.91c0-4.09,3.33-7.43,7.43-7.43h72.46ZM218.42,433.47v-22.32c2.66.05,5.33.08,8,.08s5.34-.03,8-.08v22.31h-16ZM421.39,355.6l-16.14-29.8c-.41-.75-1.34-1.03-2.09-.62-.75.41-1.03,1.34-.62,2.09l16.19,29.89c-28.65,16.43-59.09,29.01-90.73,37.57l-8.57-33.83c-.21-.83-1.05-1.33-1.87-1.12-.83.21-1.33,1.05-1.12,1.87l8.58,33.87c-28.36,7.43-57.67,11.63-87.51,12.46-1.03.03-2.06.07-3.09.09-2.15.04-4.3.06-6.46.07v-34.26c0-.85-.69-1.54-1.54-1.54s-1.54.69-1.54,1.54v34.26c-2.15,0-4.31-.03-6.46-.07-1.03-.02-2.06-.06-3.09-.09-31.89-.89-63.19-5.63-93.39-14.06l8.87-32.81c.22-.82-.26-1.67-1.09-1.89-.83-.22-1.67.26-1.89,1.09l-8.86,32.77c-32.01-9.21-62.75-22.58-91.59-39.9l17.34-29.75c.43-.74.18-1.68-.56-2.11-.74-.43-1.68-.18-2.11.56l-17.32,29.71c-6.75-4.13-13.4-8.46-19.93-13.02l42.97-61.13c9.71,6.77,19.74,12.94,30.03,18.52.91.49,1.82.97,2.73,1.45,7.17,3.79,14.47,7.29,21.88,10.5.95.41,1.9.83,2.85,1.23,33.78,14.21,69.89,22.34,107.03,23.98,1.03.05,2.06.09,3.09.13,3.67.13,7.34.2,11.02.2,4.41,0,8.8-.1,13.18-.28,1.03-.04,2.06-.09,3.09-.15,36.95-1.88,72.82-10.17,106.36-24.49.95-.41,1.9-.83,2.84-1.25,7.39-3.24,14.67-6.78,21.82-10.61.91-.49,1.82-.97,2.72-1.46,10.42-5.71,20.56-12.04,30.37-18.98l43.38,60.84c-9.36,6.63-18.97,12.81-28.79,18.54Z"/>
  <rect class="cls-1" x="83.18" y="481.61" width="286.39" height="3.09"/>
  <rect class="cls-1" x="117.29" y="496.91" width="218.16" height="3.09"/>
</svg>