<?xml version="1.0" encoding="UTF-8"?>
<svg id="Capa_1" data-name="Capa 1" xmlns="http://www.w3.org/2000/svg" viewBox="0 0 500 445">
  <defs>
    <style>
      .cls-1 {
        fill: #cbcbcb;
        stroke-width: 0px;
      }
    </style>
  </defs>
  <g>
    <path class="cls-1" d="M239.52,290.18c.68.4,1.41.73,2.17.99,1.23.42,2.55.66,3.93.66s2.69-.24,3.93-.66c.76-.26,1.48-.59,2.17-.99,1.08-.63,2.06-1.42,2.9-2.35.49-.54.93-1.12,1.32-1.73,1.17-1.87,1.86-4.07,1.86-6.43,0-.6-.49-1.08-1.08-1.08s-1.08.49-1.08,1.08c0,1.94-.56,3.74-1.52,5.28-.39.62-.83,1.2-1.34,1.72-.32.33-.67.63-1.03.91-.66.51-1.39.95-2.17,1.29-1.21.52-2.53.81-3.93.81s-2.72-.29-3.93-.81c-.78-.34-1.51-.77-2.17-1.29-2.37-1.83-3.9-4.69-3.9-7.91,0-.6-.49-1.08-1.08-1.08s-1.08.49-1.08,1.08c0,4.49,2.45,8.4,6.07,10.51Z"/>
    <path class="cls-1" d="M382.56,423.49h-76.69c.41-.06.82-.16,1.23-.31,3.16-1.16,4.78-4.67,3.63-7.83l-43.96-119.9,45.98,28.9-2.77,4.88c-.14.25-.18.55-.1.82.08.28.26.51.51.66l31.42,17.84c.17.1.35.14.53.14.38,0,.74-.2.94-.55l3.74-6.59c1,.11,2,.18,3,.18,2.45,0,4.92-.33,7.35-1,7.07-1.95,12.97-6.54,16.59-12.92,3.62-6.38,4.54-13.79,2.59-20.86-.94-3.42-2.51-6.57-4.59-9.31l3.74-6.58c.3-.52.11-1.18-.41-1.48l-31.42-17.84c-.25-.14-.55-.18-.82-.1-.28.08-.51.26-.66.51l-2.8,4.93-107.06-53.31c-.52-.26-1.14-.07-1.43.44l-1.6,2.82-61.15-30.45c-.52-.26-1.14-.07-1.43.44l-.9,1.58-17.54-8.73,2.44-4.31c1.43-2.52,1.79-5.44,1.02-8.23s-2.58-5.11-5.09-6.54c-2.52-1.43-5.44-1.79-8.23-1.02-2.79.77-5.11,2.58-6.54,5.09l-13.43,23.66c-1.43,2.52-1.79,5.44-1.02,8.23s2.58,5.11,5.09,6.54c1.65.94,3.48,1.42,5.33,1.42.97,0,1.94-.13,2.9-.39,2.79-.77,5.11-2.58,6.54-5.09l2.28-4.01,16.58,10.42-1.18,2.07c-.29.5-.12,1.14.37,1.45l57.8,36.32-2.17,3.82c-.29.5-.12,1.14.37,1.45l14.69,9.24c-1.35,2.81-2.11,5.96-2.11,9.28,0,3.97,1.09,7.69,2.97,10.89-.07.15-.14.3-.19.46l-45.74,124.75c-1.16,3.16.47,6.67,3.63,7.83.4.15.81.25,1.22.31h-69.95c-.6,0-1.08.49-1.08,1.08s.49,1.08,1.08,1.08h266.5c.6,0,1.08-.49,1.08-1.08s-.49-1.08-1.08-1.08ZM308.68,416.11c.75,2.03-.3,4.3-2.34,5.04-2.03.75-4.29-.3-5.04-2.34l-44.45-121.22c2.11-1.3,3.98-2.95,5.52-4.88.25-.31.48-.62.71-.94l.66,1.8,44.93,122.53ZM374.45,307.54c1.8,6.52.95,13.34-2.39,19.22-4.97,8.76-14.43,13.42-23.87,12.74l22.58-39.78c1.64,2.35,2.89,4.98,3.68,7.82ZM340.45,279.95l1.07-1.89,2.21-3.89,29.54,16.77-2.8,4.92-1.13,1.99-23.48,41.36-1.14,2.01-2.79,4.92-29.54-16.77,2.19-3.86,1.07-1.89,7.11-12.53,10.59-18.65,7.1-12.5ZM139,202.17l-1.07,1.89-2.33,4.1c-2.36,4.15-7.65,5.61-11.81,3.26-2.01-1.14-3.46-3-4.07-5.23-.61-2.23-.32-4.57.82-6.58l13.43-23.66c1.14-2.01,3-3.46,5.23-4.07,2.23-.61,4.57-.32,6.58.82,2.01,1.14,3.46,3,4.07,5.23.61,2.23.32,4.57-.82,6.58l-2.5,4.41-1.07,1.89-6.46,11.38ZM140.84,203.33l6.57-11.57,17.54,8.73-7.52,13.25-16.58-10.42ZM157.57,217.88l.62-1.09,1.07-1.89,7.63-13.44,1.07-1.89.33-.59,60.12,29.94-14.01,24.67-56.84-35.72ZM213.57,259.47l1.61-2.83,1.07-1.89,14.11-24.86,1.07-1.89,1.04-1.82,106.04,52.8-24.69,43.5-48.28-30.34-1.88-1.18c.29-.45.57-.91.83-1.38,1.68-3.06,2.64-6.57,2.64-10.3,0-11.85-9.64-21.5-21.5-21.5-7.76,0-14.57,4.13-18.35,10.31l-13.7-8.61ZM226.29,279.27c0-2.9.65-5.65,1.79-8.12.31-.66.65-1.3,1.02-1.92,3.4-5.57,9.53-9.29,16.51-9.29,10.66,0,19.33,8.67,19.33,19.33,0,3.08-.73,5.99-2.02,8.58-.33.66-.69,1.3-1.09,1.91,0,.01-.01.02-.02.03-.4.61-.82,1.2-1.28,1.75-1.27,1.54-2.77,2.87-4.44,3.95-.61.4-1.25.76-1.91,1.09-.79.39-1.61.73-2.46,1.01-.71.24-1.43.44-2.17.59-1.27.26-2.58.4-3.93.4s-2.66-.14-3.93-.4c-.74-.15-1.46-.35-2.17-.59-.66-.22-1.3-.47-1.92-.76-.67-.31-1.31-.64-1.94-1.02-2.39-1.44-4.44-3.38-6.01-5.68-.42-.62-.8-1.26-1.15-1.92-1.41-2.68-2.21-5.73-2.21-8.96ZM249.55,300.41v116.75c0,2.17-1.76,3.93-3.93,3.93s-3.93-1.76-3.93-3.93v-116.75c1.27.24,2.59.37,3.93.37s2.65-.13,3.93-.37ZM183.19,416.11l45.38-123.76c1.72,2.24,3.88,4.13,6.34,5.55l-44.34,120.91c-.75,2.03-3.01,3.08-5.04,2.34-2.03-.75-3.08-3.01-2.34-5.04ZM192.61,419.56l44.25-120.67c.86.39,1.75.72,2.67.99v117.27c0,3.36,2.74,6.1,6.1,6.1s6.1-2.74,6.1-6.1v-117.27c1.11-.33,2.19-.74,3.22-1.24l44.34,120.91c.8,2.17,2.71,3.62,4.85,3.93h-116.35c2.14-.32,4.05-1.76,4.85-3.93Z"/>
    <path class="cls-1" d="M353.18,429.9h-215.13c-.6,0-1.08.49-1.08,1.08s.49,1.08,1.08,1.08h215.13c.6,0,1.08-.49,1.08-1.08s-.49-1.08-1.08-1.08Z"/>
    <path class="cls-1" d="M319.39,436.3h-147.54c-.6,0-1.08.49-1.08,1.08s.49,1.08,1.08,1.08h147.54c.6,0,1.08-.49,1.08-1.08s-.49-1.08-1.08-1.08Z"/>
  </g>
  <path class="cls-1" d="M436.66,188.33c-1.05,0-1.86-.76-1.93-1.8l-.8-11.11c-.18-2.51-2.21-4.55-4.73-4.73l-11.11-.8c-1.04-.08-1.8-.89-1.8-1.93s.76-1.86,1.8-1.93l11.11-.8c2.51-.18,4.55-2.21,4.73-4.73l.8-11.11c.07-1.04.89-1.8,1.93-1.8s1.86.76,1.93,1.8l.8,11.11c.18,2.51,2.21,4.55,4.73,4.73h0l11.11.8c1.04.08,1.8.89,1.8,1.93,0,1.05-.76,1.86-1.8,1.93l-11.11.8c-2.51.18-4.55,2.21-4.73,4.73l-.8,11.11c-.08,1.04-.89,1.8-1.93,1.8ZM421.41,167.96l7.94.57c3.58.26,6.48,3.15,6.73,6.74l.57,7.94.57-7.94c.26-3.58,3.15-6.48,6.74-6.73l7.94-.57-7.94-.57c-3.58-.26-6.48-3.15-6.74-6.73l-.57-7.94-.57,7.94c-.26,3.58-3.15,6.48-6.73,6.73l-7.94.57Z"/>
  <path class="cls-1" d="M330.77,67.64c-1.04,0-1.86-.76-1.93-1.8l-.8-11.11c-.18-2.51-2.21-4.55-4.73-4.73l-11.11-.8c-1.04-.08-1.8-.89-1.8-1.93s.76-1.86,1.8-1.93l11.11-.8c2.51-.18,4.55-2.21,4.73-4.73l.8-11.11c.08-1.04.89-1.8,1.93-1.8s1.86.76,1.93,1.8l.8,11.11c.18,2.51,2.21,4.55,4.73,4.73h0l11.11.8c1.04.08,1.8.89,1.8,1.93s-.76,1.86-1.8,1.93l-11.11.8c-2.51.18-4.55,2.21-4.73,4.73l-.8,11.11c-.08,1.04-.89,1.8-1.93,1.8ZM315.52,47.27l7.94.57c3.58.26,6.48,3.15,6.74,6.73l.57,7.94.57-7.94c.26-3.58,3.15-6.48,6.74-6.74l7.94-.57-7.94-.57c-3.58-.26-6.48-3.15-6.74-6.73l-.57-7.94-.57,7.94c-.26,3.58-3.15,6.48-6.74,6.74l-7.94.57Z"/>
  <path class="cls-1" d="M63.54,109.64c-1.05,0-1.86-.76-1.93-1.8l-.8-11.11c-.18-2.51-2.21-4.55-4.73-4.73l-11.11-.8c-1.04-.08-1.8-.89-1.8-1.93s.76-1.86,1.8-1.93l11.11-.8c2.51-.18,4.55-2.21,4.73-4.73l.8-11.11c.07-1.04.89-1.8,1.93-1.8s1.86.76,1.93,1.8l.8,11.11c.18,2.51,2.21,4.55,4.73,4.73h0l11.11.8c1.04.08,1.8.89,1.8,1.93s-.76,1.86-1.8,1.93l-11.11.8c-2.51.18-4.55,2.21-4.73,4.73l-.8,11.11c-.08,1.04-.89,1.8-1.93,1.8ZM48.29,89.27l7.94.57c3.58.26,6.48,3.15,6.74,6.74l.57,7.94.57-7.94c.26-3.58,3.15-6.48,6.74-6.73l7.94-.57-7.94-.57c-3.58-.26-6.48-3.15-6.74-6.74l-.57-7.94-.57,7.94c-.26,3.58-3.15,6.48-6.74,6.73l-7.94.57Z"/>
  <path class="cls-1" d="M187.2,24.47c-4.95,0-8.97-4.03-8.97-8.97s4.03-8.97,8.97-8.97,8.97,4.02,8.97,8.97-4.02,8.97-8.97,8.97ZM187.2,8.7c-3.75,0-6.8,3.05-6.8,6.8s3.05,6.8,6.8,6.8,6.8-3.05,6.8-6.8-3.05-6.8-6.8-6.8Z"/>
  <path class="cls-1" d="M8.97,24.47C4.03,24.47,0,20.45,0,15.5S4.03,6.53,8.97,6.53s8.97,4.02,8.97,8.97-4.02,8.97-8.97,8.97ZM8.97,8.7c-3.75,0-6.8,3.05-6.8,6.8s3.05,6.8,6.8,6.8,6.8-3.05,6.8-6.8-3.05-6.8-6.8-6.8Z"/>
  <path class="cls-1" d="M8.97,144.67c-4.95,0-8.97-4.03-8.97-8.97s4.03-8.97,8.97-8.97,8.97,4.02,8.97,8.97-4.02,8.97-8.97,8.97ZM8.97,128.89c-3.75,0-6.8,3.05-6.8,6.8s3.05,6.8,6.8,6.8,6.8-3.05,6.8-6.8-3.05-6.8-6.8-6.8Z"/>
  <path class="cls-1" d="M282.12,144.67c-4.95,0-8.97-4.03-8.97-8.97s4.02-8.97,8.97-8.97,8.97,4.02,8.97,8.97-4.03,8.97-8.97,8.97ZM282.12,128.89c-3.75,0-6.8,3.05-6.8,6.8s3.05,6.8,6.8,6.8,6.8-3.05,6.8-6.8-3.05-6.8-6.8-6.8Z"/>
  <path class="cls-1" d="M491.03,68.05c-4.95,0-8.97-4.03-8.97-8.97s4.03-8.97,8.97-8.97,8.97,4.02,8.97,8.97-4.02,8.97-8.97,8.97ZM491.03,52.28c-3.75,0-6.8,3.05-6.8,6.8s3.05,6.8,6.8,6.8,6.8-3.05,6.8-6.8-3.05-6.8-6.8-6.8Z"/>
</svg>