<?xml version="1.0" encoding="UTF-8"?>
<svg id="Capa_1" data-name="Capa 1" xmlns="http://www.w3.org/2000/svg" viewBox="0 0 500 500">
  <defs>
    <style>
      .cls-1 {
        fill: #b2b2b2;
        stroke-width: 0px;
      }
    </style>
  </defs>
  <path class="cls-1" d="M281.73,0C161.27,0,63.26,98.01,63.26,218.47c0,55.15,20.58,105.55,54.41,144.04L4.35,475.84c-5.53,5.53-5.53,14.48,0,20.01,2.76,2.76,6.38,4.15,10.01,4.15s7.24-1.38,10.01-4.15l113.32-113.33c38.49,33.83,88.89,54.42,144.05,54.42,120.47,0,218.47-98.01,218.47-218.47S402.2,0,281.73,0ZM281.73,408.65c-51.21,0-97.67-20.45-131.9-53.48-.59-.99-1.06-2.03-1.91-2.88-.85-.85-1.89-1.32-2.88-1.91-33.03-34.23-53.48-80.68-53.48-131.9,0-104.86,85.31-190.17,190.17-190.17s190.17,85.31,190.17,190.17-85.31,190.17-190.17,190.17Z"/>
</svg>