<?xml version="1.0" encoding="UTF-8"?>
<svg id="Capa_1" data-name="Capa 1" xmlns="http://www.w3.org/2000/svg" viewBox="0 0 500 500">
  <defs>
    <style>
      .cls-1 {
        fill: #4d4d4d;
        stroke-width: 0px;
      }
    </style>
  </defs>
  <path class="cls-1" d="M484.93,213.79c-48.02-79.64-135.35-133.02-234.93-133.02S63.09,134.15,15.07,213.79c-4.2,6.96-8.09,14.13-11.67,21.48-4.53,9.32-4.53,20.15,0,29.47,3.58,7.35,7.47,14.52,11.67,21.48,48.02,79.64,135.35,133.02,234.93,133.02s186.91-53.38,234.93-133.02c4.2-6.96,8.09-14.13,11.67-21.48,4.53-9.32,4.53-20.15,0-29.47-3.58-7.35-7.47-14.52-11.67-21.48ZM250,389.86c-91.18,0-170.7-49.87-212.81-123.81-5.65-9.92-5.65-22.19,0-32.11,42.12-73.94,121.63-123.81,212.81-123.81s170.7,49.87,212.81,123.81c5.65,9.92,5.65,22.19,0,32.11-42.12,73.94-121.63,123.81-212.81,123.81Z"/>
  <path class="cls-1" d="M250,175.07c40.33,0,73.03,32.7,73.03,73.03s-32.7,73.03-73.03,73.03-73.03-32.7-73.03-73.03,32.7-73.03,73.03-73.03M250,145.7c-56.46,0-102.4,45.94-102.4,102.4s45.94,102.4,102.4,102.4,102.4-45.94,102.4-102.4-45.94-102.4-102.4-102.4h0Z"/>
</svg>