<?xml version="1.0" encoding="UTF-8"?>
<svg id="Capa_1" data-name="Capa 1" xmlns="http://www.w3.org/2000/svg" viewBox="0 0 500 500">
  <defs>
    <style>
      .cls-1 {
        fill: #989898;
        stroke-width: 0px;
      }
    </style>
  </defs>
  <path class="cls-1" d="M365.99,291.39c-9.63,0-17.44,7.8-17.44,17.44,0,86.54-70.4,156.95-156.95,156.95S34.66,395.37,34.66,308.83s70.4-156.95,156.95-156.95c9.63,0,17.44-7.8,17.44-17.44s-7.81-17.44-17.44-17.44C85.83,117.01-.21,203.06-.21,308.83s86.05,191.82,191.82,191.82,191.82-86.05,191.82-191.82c0-9.63-7.81-17.44-17.44-17.44Z"/>
  <path class="cls-1" d="M499.7,16.37c-.03-.26-.07-.51-.11-.77-.04-.31-.08-.61-.14-.92-.06-.29-.14-.58-.21-.87-.07-.26-.12-.53-.2-.79-.09-.28-.19-.56-.29-.83-.09-.26-.18-.52-.28-.78-.11-.26-.24-.51-.36-.77-.12-.26-.24-.52-.37-.78-.13-.25-.29-.49-.43-.74-.15-.24-.28-.49-.44-.73-.19-.29-.4-.55-.61-.83-.14-.18-.26-.36-.4-.54-.73-.9-1.56-1.72-2.45-2.45-.16-.13-.32-.24-.48-.36-.29-.22-.58-.45-.89-.65-.22-.15-.45-.27-.68-.41-.26-.16-.52-.32-.78-.46-.24-.13-.49-.24-.74-.35-.27-.13-.53-.26-.81-.37-.25-.1-.5-.18-.75-.27-.29-.1-.57-.21-.86-.3-.25-.08-.51-.13-.77-.2-.29-.07-.59-.16-.89-.22-.3-.06-.6-.09-.91-.14-.26-.04-.51-.09-.78-.11-.57-.06-1.15-.09-1.72-.09h-174.36c-9.63,0-17.44,7.8-17.44,17.44s7.81,17.44,17.44,17.44h132.27L179.28,296.5c-6.81,6.81-6.81,17.85,0,24.66,3.41,3.41,7.87,5.11,12.33,5.11s8.92-1.7,12.33-5.11L464.91,60.18v132.27c0,9.63,7.81,17.44,17.44,17.44s17.44-7.8,17.44-17.44V18.09c0-.57-.03-1.15-.09-1.72Z"/>
</svg>